<svg xmlns="http://www.w3.org/2000/svg" xmlns:xlink="http://www.w3.org/1999/xlink" width="57" height="57" viewBox="0 0 57 57">
  <defs>
    <filter id="Ellipse_28" x="0" y="0" width="57" height="57" filterUnits="userSpaceOnUse">
      <feOffset dy="3" input="SourceAlpha"/>
      <feGaussianBlur stdDeviation="3" result="blur"/>
      <feFlood flood-opacity="0.161"/>
      <feComposite operator="in" in2="blur"/>
      <feComposite in="SourceGraphic"/>
    </filter>
  </defs>
  <g id="Group_60" data-name="Group 60" transform="translate(-306 -755)">
    <g transform="matrix(1, 0, 0, 1, 306, 755)" filter="url(#Ellipse_28)">
      <circle id="Ellipse_28-2" data-name="Ellipse 28" cx="19.5" cy="19.5" r="19.5" transform="translate(9 6)" fill="#fff"/>
    </g>
    <path id="Icon_awesome-filter" data-name="Icon awesome-filter" d="M14.995,0H.738A.738.738,0,0,0,.217,1.259L5.9,6.943v6.332a.738.738,0,0,0,.315.6L8.673,15.6a.738.738,0,0,0,1.16-.6V6.943l5.683-5.684A.738.738,0,0,0,14.995,0Z" transform="translate(326.898 772.898)"/>
  </g>
</svg>
