<svg xmlns="http://www.w3.org/2000/svg" width="35.597" height="35.63" viewBox="0 0 35.597 35.63">
  <path id="noun-quality-3266342" d="M81.862.2a3.532,3.532,0,0,0-1.1.253A5.4,5.4,0,0,0,78.1,3.672,11.723,11.723,0,0,1,76.61,6.5,11.689,11.689,0,0,1,73.77,7.93c-1.226.52-2.648,1.131-3.273,2.606s-.07,2.923.408,4.165a11.659,11.659,0,0,1,.94,3.044,11.69,11.69,0,0,1-.99,3.035c-.5,1.235-1.074,2.664-.473,4.148s2.013,2.119,3.23,2.66a11.619,11.619,0,0,1,2.815,1.491,11.674,11.674,0,0,1,1.448,2.845c.52,1.226,1.129,2.642,2.6,3.267s2.912.072,4.154-.406a11.57,11.57,0,0,1,3.048-.931,11.572,11.572,0,0,1,3.031.981c1.235.5,2.672,1.072,4.157.471s2.113-2,2.653-3.219a11.716,11.716,0,0,1,1.5-2.826,11.624,11.624,0,0,1,2.839-1.445c1.226-.52,2.639-1.129,3.264-2.6s.081-2.916-.4-4.159a11.659,11.659,0,0,1-.94-3.044,11.678,11.678,0,0,1,.989-3.033c.5-1.235,1.076-2.663.475-4.148s-2.015-2.119-3.232-2.659A11.618,11.618,0,0,1,99.2,6.677,11.7,11.7,0,0,1,97.757,3.83C97.237,2.6,96.626,1.19,95.151.565s-2.914-.081-4.157.4A11.741,11.741,0,0,1,87.94,1.9,11.678,11.678,0,0,1,84.915.913,7.052,7.052,0,0,0,81.862.2Zm.147,2.227a6.244,6.244,0,0,1,2.078.544,10.441,10.441,0,0,0,3.841,1.149,10.426,10.426,0,0,0,3.856-1.084A4.17,4.17,0,0,1,94.291,2.6a4.146,4.146,0,0,1,1.43,2.1,10.445,10.445,0,0,0,1.9,3.532,10.443,10.443,0,0,0,3.5,1.955,4.147,4.147,0,0,1,2.072,1.467,4.143,4.143,0,0,1-.469,2.493,10.446,10.446,0,0,0-1.149,3.841,10.477,10.477,0,0,0,1.087,3.865,4.141,4.141,0,0,1,.43,2.5,4.184,4.184,0,0,1-2.1,1.433,10.419,10.419,0,0,0-3.521,1.905,10.452,10.452,0,0,0-1.966,3.5,4.147,4.147,0,0,1-1.467,2.072,4.143,4.143,0,0,1-2.493-.469A10.445,10.445,0,0,0,87.7,31.636a10.423,10.423,0,0,0-3.856,1.085,4.172,4.172,0,0,1-2.506.432,4.148,4.148,0,0,1-1.43-2.1A10.459,10.459,0,0,0,78,27.527a10.417,10.417,0,0,0-3.493-1.957A4.147,4.147,0,0,1,72.434,24.1,4.143,4.143,0,0,1,72.9,21.61a10.486,10.486,0,0,0,1.147-3.85A10.426,10.426,0,0,0,72.966,13.9a4.138,4.138,0,0,1-.43-2.5,4.146,4.146,0,0,1,2.1-1.43,10.461,10.461,0,0,0,3.53-1.908,10.45,10.45,0,0,0,1.966-3.5,4.182,4.182,0,0,1,1.465-2.08,1.119,1.119,0,0,1,.417-.067Zm5.8,4.96A10.492,10.492,0,1,0,98.3,17.877,10.5,10.5,0,0,0,87.81,7.386Zm0,2.212a8.28,8.28,0,1,1-8.27,8.279A8.265,8.265,0,0,1,87.81,9.6Zm3.8,4.848q-.053,0-.106,0a1.106,1.106,0,0,0-.67.285l-4.068,3.593-1.4-1.6A1.106,1.106,0,1,0,83.7,18.17l2.124,2.45a1.106,1.106,0,0,0,1.566.106l4.9-4.336a1.106,1.106,0,0,0-.685-1.944Z" transform="translate(-70.016 -0.042)" stroke="#000" stroke-width="0.3"/>
</svg>
