<svg xmlns="http://www.w3.org/2000/svg" width="59.396" height="26.094" viewBox="0 0 59.396 26.094">
  <path id="noun-shipping-5125530" d="M85.722,153.04a1.509,1.509,0,0,0-1.056.422,1.418,1.418,0,0,0-.435,1.023v2.293a1.416,1.416,0,0,0,.439,1.016,1.509,1.509,0,0,0,1.052.417,1.462,1.462,0,0,0,1.482-1.433v-.86H111v16.759H98.839a5.239,5.239,0,0,0-9.952,0H85.723a1.509,1.509,0,0,0-1.056.422,1.407,1.407,0,0,0,0,2.038,1.509,1.509,0,0,0,1.052.417H88.9a5.236,5.236,0,0,0,9.935,0h16.42a5.236,5.236,0,0,0,9.935,0h2.767a1.462,1.462,0,0,0,1.479-1.433V165.7a1.406,1.406,0,0,0-.229-.776l-4.923-7.466a1.5,1.5,0,0,0-1.25-.658h-9.056v-2.315a1.416,1.416,0,0,0-.435-1.023,1.509,1.509,0,0,0-1.056-.422Zm-2.631,6.255a1.509,1.509,0,0,0-1.052.417,1.407,1.407,0,0,0,0,2.038,1.509,1.509,0,0,0,1.056.422h9.067a1.509,1.509,0,0,0,1.056-.422,1.408,1.408,0,0,0,0-2.038,1.509,1.509,0,0,0-1.052-.417Zm30.883.382h8.244l4.244,6.435v6.564h-1.268a5.239,5.239,0,0,0-9.952,0h-1.268ZM77.3,164.041a1.51,1.51,0,0,0-1.05.424,1.417,1.417,0,0,0-.432,1.02,1.463,1.463,0,0,0,1.482,1.436H89.264a1.509,1.509,0,0,0,1.053-.418,1.411,1.411,0,0,0,0-2.04,1.51,1.51,0,0,0-1.056-.422Zm-5.79,4.76a1.51,1.51,0,0,0-1.048.426,1.417,1.417,0,0,0-.431,1.019,1.463,1.463,0,0,0,1.479,1.433H86.369a1.509,1.509,0,0,0,1.052-.418,1.408,1.408,0,0,0,0-2.038,1.509,1.509,0,0,0-1.056-.422Zm22.344,3.153a2.152,2.152,0,1,1-2.228,2.147A2.165,2.165,0,0,1,93.859,171.954Zm26.364,0A2.152,2.152,0,1,1,118,174.1,2.158,2.158,0,0,1,120.223,171.954Z" transform="translate(-70.036 -153.04)" fill-rule="evenodd"/>
</svg>
